# xmcd
#
# Track frame offsets: 
#        150
#        18158
#        37859
#        52665
#        68502
#        90965
#        111290
#        132644
#        146724
#        168461
#
# Disc length: 2485 seconds
#
# Revision: 2
# Processed by: cddbd v1.5.2PL0 Copyright (c) Steve Scherf et al.
# Submitted via: ExactAudioCopyFreeDBPlugin 1.0
#
DISCID=7809b30a
DTITLE=Emmylou Harris, Linda Ronstadt, Dolly Parton - 1999 - Trio Two
DYEAR=1999
DGENRE=Country
TTITLE0=Lover's Return
TTITLE1=High Sierra
TTITLE2=Do I Ever Cross Your Mind
TTITLE3=After The Gold Rush
TTITLE4=The Blue Train
TTITLE5=I Feel The Blues Movin' In
TTITLE6=You'll Never Be The Sun
TTITLE7=He Rode All The Way To Texas
TTITLE8=Feels Like Home
TTITLE9=When We're Gone, Long Gone
EXTD=0\n\n\n
EXTT0=
EXTT1=
EXTT2=
EXTT3=
EXTT4=
EXTT5=
EXTT6=
EXTT7=
EXTT8=
EXTT9=
PLAYORDER=
